<svg width="59" height="60" viewBox="0 0 59 60" fill="none" xmlns="http://www.w3.org/2000/svg">
<path d="M58.4229 23.7562C58.0742 22.0456 57.5872 20.3661 56.9668 18.7343C56.2494 16.863 55.3247 15.0779 54.21 13.4123C54.1142 13.2654 54.1184 13.2484 54.1951 13.1164C54.4555 12.6973 54.6074 12.2199 54.6367 11.7274C54.6661 11.2348 54.5721 10.7428 54.3632 10.2957C54.1981 9.90692 53.956 9.5556 53.6514 9.26296C53.3468 8.97032 52.986 8.74243 52.5909 8.59302C52.1958 8.44362 51.7746 8.3758 51.3525 8.39367C50.9305 8.41154 50.5165 8.51472 50.1354 8.69698C49.7613 8.87722 49.4264 9.12941 49.1497 9.43913C48.8731 9.74885 48.6602 10.11 48.5232 10.5021C48.3862 10.8941 48.3278 11.3093 48.3513 11.7239C48.3748 12.1385 48.4797 12.5444 48.6602 12.9184C49.1519 13.919 50.3185 14.9642 51.9896 14.6215C52.3558 14.5448 52.3941 14.6087 52.5985 14.9578C52.624 15.0025 52.6495 15.0472 52.6772 15.0919L52.756 15.2239C52.7858 15.275 52.8156 15.3282 52.8475 15.3793C54.5644 18.1689 55.7448 21.2547 56.3281 24.4779C56.541 25.6466 56.6475 26.86 56.7539 28.0351C56.7901 28.4374 56.8263 28.8526 56.8689 29.2634H56.8369L56.7816 30.2746C56.7539 30.7493 56.7283 31.2262 56.7007 31.7009C56.6052 33.4336 56.3036 35.1487 55.8023 36.81C55.3474 38.2651 54.8151 39.6949 54.2078 41.0932C53.2222 43.3923 51.7746 45.5829 49.8161 47.7819C47.9902 49.8147 45.8698 51.562 43.5255 52.9656C42.0171 53.902 40.4046 54.6593 38.7207 55.2221C37.403 55.6479 35.9831 56.0162 34.2502 56.3994C33.2446 56.6365 32.219 56.779 31.1869 56.8251C29.7904 56.8677 28.3577 56.7932 26.9718 56.7229H26.7909C25.107 56.6357 23.2996 56.2695 21.1048 55.5734C18.2754 54.6658 15.6144 53.2994 13.2282 51.5286C12.3767 50.9049 12.1149 50.939 11.4656 51.7607C11.2846 51.9885 11.1165 52.2013 11.1527 52.4845C11.1888 52.7676 11.4124 52.9315 11.6444 53.104C13.4917 54.4911 15.4916 55.6625 17.6051 56.5952C20.5322 57.8681 23.6455 58.6603 26.825 58.9412C27.6935 59.0178 28.5592 59.0568 29.4221 59.0582C33.1811 59.0478 36.9052 58.3352 40.4025 56.9571C43.4957 55.7326 46.359 53.9929 48.8709 51.8118C51.1516 49.8357 53.1089 47.5149 54.6719 44.9336C55.9919 42.7501 57.0318 40.4092 57.7672 37.966C58.3314 36.1293 58.7017 34.2385 58.8721 32.3246C59.1325 29.4617 58.9812 26.5762 58.4229 23.7562ZM52.4516 11.5496C52.4489 11.6705 52.4215 11.7895 52.3709 11.8994C52.3204 12.0092 52.2479 12.1076 52.1578 12.1882C51.9536 12.3676 51.6885 12.462 51.417 12.4522C51.3002 12.4473 51.1856 12.4194 51.0796 12.3701C50.9737 12.3207 50.8785 12.251 50.7996 12.1648C50.7003 12.0503 50.6302 11.9134 50.5952 11.7659C50.5602 11.6185 50.5613 11.4647 50.5985 11.3177C50.6357 11.1708 50.7078 11.035 50.8088 10.9219C50.9097 10.8088 51.0365 10.7218 51.1783 10.6683C51.3201 10.6147 51.4728 10.5963 51.6232 10.6144C51.7737 10.6325 51.9176 10.6868 52.0427 10.7725C52.1677 10.8582 52.2702 10.9728 52.3414 11.1066C52.4126 11.2405 52.4504 11.3895 52.4516 11.5411V11.5496Z" fill="black"/>
<path d="M6.45226 44.2653H6.42033C4.6348 41.4369 3.37758 38.3079 2.70981 35.0305C2.36774 33.2156 2.17409 31.3759 2.13078 29.5296C2.16038 27.6841 2.35272 25.8448 2.70556 24.033C3.02132 22.4112 3.49695 20.8246 4.12547 19.2964C4.68172 18.0145 5.31001 16.765 6.00734 15.554C7.25691 13.3631 8.83656 11.3777 10.6907 9.66783C13.9542 6.583 17.928 4.35056 22.2603 3.16826C26.5925 1.98596 31.1495 1.89028 35.5275 2.8897C37.1517 3.26133 38.7396 3.77639 40.2727 4.42883C41.8358 5.0902 43.3279 5.90829 44.7261 6.87058C44.9028 6.99192 45.0774 7.11752 45.2519 7.24312C45.5372 7.456 45.8331 7.66888 46.1375 7.86047C46.3845 8.02013 46.906 8.04781 47.1232 7.75829C47.3135 7.48737 47.4836 7.20275 47.632 6.90677L47.7086 6.76626C47.8874 6.42991 47.5787 6.20213 47.434 6.09569L47.104 5.84662C46.8379 5.64651 46.5633 5.44002 46.2802 5.24629C43.8392 3.56866 41.1654 2.25826 38.344 1.35696C36.1751 0.661793 33.9298 0.232884 31.6574 0.0796718C27.6476 -0.215251 23.6198 0.310548 19.8201 1.62494C16.0204 2.93933 12.5287 5.0147 9.55819 7.72423C6.28591 10.7016 3.7293 14.3804 2.07968 18.4854C1.14088 20.8271 0.589518 22.826 0.361735 24.7717C0.327674 25.0506 0.291484 25.3295 0.255294 25.6084C0.116254 26.525 0.0316628 27.4491 0.00196624 28.3758C-0.0129354 29.5978 0.0594442 30.8346 0.131824 32.0289C0.153112 32.378 0.1744 32.7271 0.193559 33.0784C0.293614 34.9517 0.774724 36.7314 1.27925 38.3578C2.05234 40.8801 3.17292 43.2825 4.60871 45.4957C4.18486 46.0967 3.98592 46.8277 4.04671 47.5607C4.08097 48.0342 4.22356 48.4935 4.46347 48.9032C4.70339 49.3129 5.03422 49.662 5.43043 49.9236C5.94743 50.2681 6.55482 50.4518 7.17605 50.4516C7.54436 50.4508 7.90991 50.3882 8.25749 50.2664C9.02555 49.9917 9.65333 49.4237 10.0031 48.6868C10.1845 48.3011 10.2871 47.8831 10.305 47.4573C10.3229 47.0314 10.2558 46.6063 10.1074 46.2067C9.58161 44.7187 7.90624 43.8288 6.45226 44.2653ZM8.10635 47.3435C8.10635 48.1823 7.3123 48.2589 7.15477 48.2653C7.04448 48.2692 6.93456 48.2503 6.83197 48.2096C6.72937 48.1689 6.63633 48.1074 6.5587 48.029C6.4614 47.9339 6.38413 47.8204 6.33148 47.6949C6.27883 47.5695 6.25185 47.4348 6.25215 47.2988C6.2594 47.0346 6.37027 46.7838 6.56083 46.6006C6.71973 46.4434 6.93344 46.3541 7.1569 46.3515C7.28542 46.3507 7.41274 46.3762 7.53108 46.4264C7.64942 46.4765 7.75629 46.5503 7.84516 46.6431C7.93403 46.736 8.00302 46.846 8.04793 46.9664C8.09284 47.0868 8.11272 47.2151 8.10635 47.3435Z" fill="black"/>
<path d="M23.5998 34.9282L23.2741 35.0559C22.8121 35.239 22.3331 35.4284 21.8584 35.5966C21.1325 35.8584 20.4044 36.1139 19.6764 36.3715C18.3586 36.8377 16.9962 37.3188 15.6614 37.8148C14.6598 38.1568 13.7516 38.7275 13.0089 39.4817L12.8323 39.6669C12.5214 39.9905 12.3341 40.1863 12.3554 40.4844C12.3767 40.7824 12.5811 40.9293 12.8429 41.123C12.9323 41.1932 13.0387 41.2763 13.1665 41.3827C13.3154 41.5225 13.5095 41.6041 13.7136 41.6126C13.8324 41.6058 13.9485 41.5749 14.055 41.5218C14.1615 41.4688 14.2561 41.3946 14.3331 41.3039L14.4629 41.172C14.7189 40.8782 15.0208 40.628 15.357 40.4311C16.5045 39.8819 17.6987 39.3795 18.8781 38.941C20.0298 38.5152 21.2198 38.1022 22.3608 37.7063C22.964 37.5005 23.5657 37.2918 24.166 37.0804C24.9984 36.7866 25.8691 36.3247 25.9521 35.1283C25.9947 34.5535 26.0415 33.934 26.1033 33.3103C26.1198 33.1012 26.0903 32.891 26.0167 32.6945C25.9432 32.4981 25.8273 32.3202 25.6775 32.1735L25.4774 31.95C24.9889 31.4395 24.5485 30.8851 24.1618 30.2937C23.2868 28.8388 22.7154 27.2218 22.4822 25.5401C22.1812 23.7048 22.4798 21.8213 23.3337 20.1691C24.1554 18.5491 25.3837 17.4613 26.9825 16.9376C28.1831 16.5442 29.4602 16.4428 30.7079 16.6417C31.9852 16.8333 32.9963 17.259 33.7797 17.9424C35.8277 19.7263 36.7132 22.0318 36.4876 24.9887C36.396 26.1673 36.1284 27.3254 35.6935 28.4246C35.1297 29.8774 34.2666 31.1952 33.1603 32.2927C32.9501 32.5097 32.8286 32.7975 32.8197 33.0995C32.8043 33.6917 32.8299 34.2842 32.8963 34.8728C32.9857 35.5498 33.2284 36.4971 34.2907 36.8824C34.5717 36.9846 34.8548 37.0953 35.1422 37.2102C35.4615 37.338 35.7808 37.4721 36.1257 37.5892C36.7494 37.8021 37.3753 38.0149 38.0012 38.2278C39.0102 38.5727 40.0533 38.9261 41.0667 39.305L41.452 39.4476C42.6995 39.9053 43.8767 40.3375 44.6963 41.3636C44.7406 41.4176 44.7957 41.462 44.8579 41.4939C44.9202 41.5257 44.9884 41.5444 45.0582 41.5488C45.2845 41.5694 45.5108 41.509 45.6968 41.3785C45.9143 41.1921 46.1178 40.9901 46.3057 40.7739L46.5441 40.5163V40.3375C46.5219 40.1727 46.4411 40.0215 46.3163 39.9117C46.1886 39.7925 46.063 39.6648 45.9374 39.5392C45.6356 39.2097 45.2962 38.9168 44.9262 38.6663C43.4743 37.7531 41.8586 37.2081 40.2982 36.6802C39.8916 36.5418 39.485 36.4056 39.0826 36.2544L38.1246 35.9159C37.205 35.5923 36.2556 35.2581 35.3338 34.9069C35.2334 34.8487 35.1543 34.7599 35.1081 34.6535C35.0279 34.3846 34.9997 34.1028 35.0251 33.8233C35.0317 33.6662 35.0826 33.5141 35.172 33.3848C37.0127 31.3717 38.2002 28.8482 38.5781 26.1468C38.8764 24.4311 38.7796 22.6699 38.295 20.9972C37.7287 19.109 36.8048 17.6273 35.4807 16.465C33.8394 15.0259 31.8617 14.3681 29.0495 14.3362C28.0573 14.3396 27.0743 14.5266 26.1501 14.8875C23.0037 16.0733 21.1027 18.4618 20.3427 22.1872C20.0468 23.6348 20.1064 25.2059 20.5258 27.1325C21.0262 29.4922 22.1595 31.6712 23.8041 33.4359C23.9638 33.6487 23.9319 34.6365 23.7637 34.8345C23.714 34.8737 23.6588 34.9052 23.5998 34.9282Z" fill="black"/>
<path d="M49.5649 36.4547C48.9266 38.2853 48.0513 40.0244 46.9613 41.6277C46.8634 41.7788 46.6889 42.2663 47.0103 42.5239C47.2923 42.7493 47.5969 42.9447 47.9193 43.1072C47.9895 43.1417 48.0668 43.1592 48.145 43.1583C48.2767 43.149 48.4049 43.1113 48.5207 43.0477C48.6364 42.9842 48.737 42.8962 48.8155 42.79C51.4589 38.8923 52.892 34.3006 52.9348 29.5914V29.5637C52.9135 29.2891 52.8965 29.0123 52.8773 28.7377C52.8369 28.1331 52.7964 27.5073 52.7389 26.8899C52.507 24.5426 51.8959 22.2485 50.9295 20.0969C49.4459 16.7019 47.1741 13.7098 44.3025 11.3688C42.0751 9.54745 39.5263 8.15964 36.7878 7.27718C35.1579 6.74746 33.4768 6.39069 31.7723 6.21277C28.8277 5.91651 25.8536 6.17795 23.0058 6.9834C20.9324 7.56228 18.9529 8.43622 17.1282 9.57842C17.0941 9.59971 17.075 9.6061 17.075 9.60823C17.0443 9.59633 17.0156 9.57982 16.9898 9.55926C16.6383 9.32114 16.2397 9.16124 15.821 9.09036C15.4023 9.01948 14.9733 9.03927 14.563 9.1484C13.8097 9.33321 13.1511 9.78978 12.7139 10.4304C12.2766 11.0711 12.0914 11.8507 12.1938 12.6196C12.2962 13.3885 12.679 14.0924 13.2688 14.5963C13.8585 15.1002 14.6135 15.3684 15.389 15.3496C15.8763 15.3378 16.354 15.2123 16.7843 14.9832C17.2145 14.754 17.5852 14.4275 17.8669 14.0298C18.1379 13.6695 18.3228 13.2519 18.4073 12.8091C18.4918 12.3663 18.4737 11.9099 18.3544 11.4752C18.3544 11.4518 18.3416 11.4326 18.3395 11.4198L18.3714 11.4028C18.712 11.2325 19.0484 11.0537 19.3847 10.8727C19.9893 10.5513 20.6152 10.2192 21.2453 9.94884C23.1289 9.15479 25.1196 8.64402 27.1528 8.43312C30.1494 8.10171 33.1823 8.41306 36.0491 9.34638C41.1352 11.0078 45.4085 14.5248 48.0172 19.1964C48.9475 20.859 49.533 22.2874 49.8587 23.6903L49.9864 24.2353C50.2655 25.3133 50.4739 26.4084 50.6101 27.5136C50.7825 29.1581 50.7518 30.8176 50.5186 32.4546C50.3197 33.8136 50.0005 35.1522 49.5649 36.4547ZM15.274 13.1484C15.0278 13.1391 14.7947 13.0348 14.6236 12.8574C14.4526 12.68 14.3569 12.4433 14.3565 12.1969C14.3596 12.066 14.3887 11.9371 14.442 11.8176C14.4954 11.6981 14.572 11.5904 14.6673 11.5007C14.7511 11.4199 14.852 11.3588 14.9625 11.322C15.073 11.2852 15.1904 11.2735 15.3059 11.2879H15.3294C15.4544 11.287 15.5783 11.311 15.694 11.3584C15.8097 11.4058 15.9149 11.4756 16.0034 11.5639C16.0919 11.6522 16.162 11.7572 16.2096 11.8728C16.2573 11.9884 16.2815 12.1123 16.2809 12.2373C16.2611 12.4708 16.1539 12.6883 15.9808 12.8461C15.8905 12.943 15.7811 13.02 15.6594 13.072C15.5376 13.1241 15.4064 13.1501 15.274 13.1484Z" fill="black"/>
<path d="M19.8256 50.8985C21.2042 51.4472 22.6104 51.924 24.0385 52.3269C25.0729 52.6072 26.1326 52.7841 27.2019 52.8548C27.6745 52.8868 28.1514 52.8974 28.6239 52.8974C28.9582 52.8974 29.2903 52.8974 29.616 52.8868C30.0417 52.8868 30.5037 52.874 30.9444 52.8868C32.6219 52.9038 34.261 52.5164 35.6639 52.1502C37.7092 51.614 39.6655 50.7829 41.4713 49.6829C41.5948 49.6084 41.5969 49.6063 41.7183 49.6829C42.9955 50.5153 44.5113 50.3471 45.68 49.2572C46.1532 48.78 46.4602 48.1632 46.5557 47.4981C46.6512 46.8329 46.53 46.1546 46.21 45.5637C45.3926 44.1736 44.1132 43.6264 42.6081 44.0245C41.0541 44.4354 40.1387 45.7276 40.3303 47.2178C40.4048 47.8138 40.2558 47.9096 39.7236 48.1523C39.6409 48.1924 39.5606 48.2372 39.483 48.2864C39.4383 48.3141 39.3957 48.3418 39.3489 48.3652C37.1073 49.4743 35.3042 50.0895 33.5074 50.3599C32.5388 50.5046 31.5596 50.626 30.7719 50.7218L29.9736 50.8197C27.6766 50.7047 25.7607 50.5387 23.9086 50.0299C21.6157 49.4104 19.4412 48.4156 17.4732 47.0858C15.2533 45.5755 13.3445 43.6523 11.8511 41.421C10.3593 39.1969 9.29515 36.7141 8.71319 34.1C8.38977 32.7035 8.21988 31.2758 8.20653 29.8424C8.14284 25.6489 9.32208 21.5305 11.5956 18.0062L11.6233 17.9615C12.2491 16.9674 12.1981 16.7183 11.2337 16.0456C11.1453 15.974 11.0425 15.9223 10.9323 15.894C10.822 15.8657 10.707 15.8615 10.5951 15.8817C10.491 15.9065 10.3933 15.9529 10.3082 16.0178C10.2232 16.0827 10.1526 16.1647 10.1012 16.2585C9.88404 16.6119 9.66335 16.9667 9.43911 17.3229C8.63082 18.6183 7.9649 19.9972 7.45293 21.4357C6.82105 23.1795 6.39245 24.9903 6.17565 26.8323C5.98285 28.4813 5.96501 30.146 6.12243 31.7988C6.27891 33.3936 6.60213 34.9675 7.08678 36.4949C7.71726 38.5401 8.62399 40.4897 9.78185 42.2896C11.2934 44.6325 13.2153 46.6835 15.4551 48.3439C17.0986 49.568 18.4482 50.3556 19.8256 50.8985ZM42.4804 47.0496C42.4851 46.8041 42.5838 46.5697 42.756 46.3947C42.9282 46.2197 43.161 46.1173 43.4064 46.1086C43.5408 46.1094 43.6737 46.1367 43.7976 46.189C43.9214 46.2412 44.0337 46.3174 44.1281 46.4131C44.2108 46.4933 44.2768 46.5892 44.3221 46.6952C44.3674 46.8012 44.3912 46.9151 44.392 47.0304C44.3857 47.2824 44.2835 47.5224 44.1063 47.7016C43.9291 47.8808 43.6902 47.9856 43.4383 47.9948C43.3112 47.9948 43.1854 47.9696 43.0681 47.9207C42.9508 47.8717 42.8443 47.7999 42.755 47.7095C42.6677 47.6233 42.5984 47.5205 42.5513 47.4072C42.5041 47.2939 42.48 47.1723 42.4804 47.0496Z" fill="black"/>
</svg>
