<svg width="54" height="48" viewBox="0 0 54 48" fill="none" xmlns="http://www.w3.org/2000/svg">
<path d="M53.1378 7.14772C53.1434 6.11313 52.9014 5.09221 52.432 4.17021C51.0377 1.43954 48.7525 0.0298525 45.7191 0.0202103C32.9316 -0.0145016 20.1441 0.0047829 7.35471 0.0105682C6.9279 0.00820576 6.5018 0.0456507 6.08194 0.122417C4.43622 0.402324 2.93538 1.23574 1.82781 2.48476C0.69967 3.75367 0.0227871 5.2405 0.0170018 6.92981C-0.0119248 15.4612 0.00157424 23.9907 0.0170018 32.5221C0.0241207 32.9172 0.0739064 33.3103 0.165492 33.6946C0.508958 35.3798 1.44659 36.8855 2.80745 37.9372C3.93559 38.8069 5.21607 39.4009 6.63155 39.4259C10.3631 39.4877 14.0965 39.4491 17.8281 39.4394C18.0222 39.433 18.2103 39.3707 18.37 39.2601C18.5567 39.1351 18.6977 38.9527 18.7714 38.7404C18.8452 38.5281 18.8478 38.2976 18.7788 38.0837C18.6457 37.6981 18.1829 37.4107 17.6873 37.4107C14.1544 37.4107 10.6215 37.4107 7.09052 37.4011C6.68193 37.392 6.2762 37.3304 5.88331 37.2179C3.65982 36.6278 2.02644 34.4486 2.02644 31.9783C2.06886 23.7574 2.02644 15.5345 2.04765 7.31357C2.04765 5.48348 2.86531 4.04679 4.34249 2.97844C5.32021 2.2707 6.46378 2.10871 7.62084 2.05857C8.39221 2.02386 9.16359 2.07014 9.93497 2.07207C11.335 2.07207 12.737 2.07207 14.139 2.07207C15.5409 2.07207 16.9121 2.07207 18.2986 2.07207C19.6485 2.07207 21.01 2.05664 22.3657 2.05664C23.7831 2.05664 25.2005 2.07207 26.6179 2.07207C27.9678 2.07207 29.3293 2.05664 30.685 2.05664C32.1024 2.05664 33.5198 2.07207 34.9275 2.07207C36.2775 2.07207 37.6389 2.05857 38.9946 2.05664C40.4583 2.05664 41.922 2.0335 43.3838 2.05664C44.5796 2.05022 45.7747 2.11461 46.9629 2.24949C49.3311 2.58311 51.0956 4.91845 51.0975 7.21522C51.0975 15.3597 51.0975 23.5041 51.0975 31.6485C51.1018 32.1368 51.0702 32.6247 51.003 33.1084C50.6559 35.4225 48.5269 37.3509 46.1511 37.3992C43.592 37.4493 41.0291 37.4088 38.4682 37.4107C37.6717 37.4107 37.3111 37.7675 37.3111 38.5504V43.9713L37.099 44.0966C37.0314 43.9405 36.9446 43.7935 36.8406 43.6589C34.8813 41.6899 32.9239 39.721 30.9434 37.7752C30.7258 37.5732 30.4467 37.4503 30.1508 37.4262C29.3351 37.3818 28.5174 37.403 27.6998 37.4127C27.4327 37.421 27.1785 37.5292 26.9874 37.716C26.7964 37.9028 26.6824 38.1544 26.668 38.4212C26.6665 38.6904 26.7718 38.9492 26.9609 39.1409C27.15 39.3325 27.4074 39.4413 27.6766 39.4433C28.1261 39.4726 28.577 39.4726 29.0265 39.4433C29.5626 39.3912 29.931 39.5879 30.307 39.9678C32.6906 42.3842 35.1011 44.7716 37.4943 47.1783C37.9899 47.6758 38.6822 47.7414 39.1219 47.1185C39.2719 46.8774 39.3496 46.5983 39.3456 46.3143C39.363 44.0484 39.3552 41.7825 39.3552 39.4529H39.9145C42.0589 39.4529 44.2033 39.4529 46.3478 39.4529C46.7115 39.4447 47.0731 39.3955 47.4258 39.3064C49.0649 38.9207 50.465 38.13 51.5256 36.7821C52.5226 35.517 53.1359 34.0977 53.1397 32.4836C53.15 24.0306 53.1494 15.5853 53.1378 7.14772Z" fill="black"/>
<path d="M5.56126 25.796C5.56647 26.1455 5.59676 26.4941 5.6519 26.8393C5.97395 29.0165 8.02967 30.7251 10.2107 30.7308C16.9063 30.7501 23.6005 30.7501 30.2935 30.7308C30.8288 30.7427 31.3642 30.7098 31.8941 30.6325C32.6795 30.5197 33.4208 30.2006 34.0425 29.7076C34.6642 29.2147 35.144 28.5656 35.4328 27.8266C35.724 27.1343 35.7857 26.3456 35.9554 25.5858C36.0821 25.6341 36.2064 25.6888 36.3276 25.7497C38.4296 26.8887 40.5303 28.0317 42.6297 29.1784C43.6653 29.7435 44.7105 30.2969 45.7268 30.8986C45.9011 31.0207 46.1046 31.0945 46.3166 31.1124C46.5287 31.1304 46.7417 31.0919 46.934 31.0008C47.3544 30.7964 47.4933 30.4049 47.4933 29.9363C47.4933 23.1341 47.4933 16.3318 47.4933 9.52958C47.511 9.3327 47.476 9.13464 47.392 8.95571C47.308 8.77679 47.1778 8.62343 47.015 8.51136C46.585 8.22017 46.1761 8.31852 45.775 8.54608C43.6152 9.73271 41.4572 10.9219 39.3012 12.1137C38.1731 12.7327 37.043 13.346 35.8763 13.9804C35.8546 13.5027 35.8038 13.0268 35.724 12.5553C35.6277 12.099 35.4653 11.6591 35.2419 11.2497C34.3644 9.71857 33.0492 8.81027 31.2577 8.80449C24.1765 8.78327 17.0972 8.80449 10.0179 8.80449C9.86395 8.78998 9.709 8.78998 9.55506 8.80449C7.18308 9.28467 5.53619 11.2015 5.55162 13.6256C5.57669 17.683 5.55548 21.7462 5.56126 25.796ZM35.8378 16.6031C35.8429 16.5345 35.8628 16.4678 35.8961 16.4075C35.9293 16.3473 35.9752 16.2949 36.0306 16.254C37.6987 15.3323 39.3784 14.4297 41.0446 13.5137C42.4909 12.7211 43.9372 11.9189 45.4375 11.0839V28.3646C44.8436 28.0542 44.2805 27.7707 43.727 27.4679C42.1573 26.6104 40.5888 25.7516 39.0216 24.8915C38.04 24.3535 37.0565 23.8174 36.0865 23.2601C36.0174 23.2142 35.9592 23.1536 35.9162 23.0825C35.8732 23.0115 35.8464 22.9319 35.8378 22.8493C35.8223 20.7666 35.8211 18.6845 35.8339 16.6031H35.8378ZM10.2859 10.8178C17.2399 10.8486 24.1945 10.8486 31.1497 10.8178C32.4996 10.8178 33.7975 12.1118 33.7955 13.4732C33.7955 17.6213 33.8129 21.7655 33.784 25.9175C33.7685 27.5566 32.6366 28.6886 31.0572 28.6886C24.1148 28.7233 17.1724 28.7233 10.23 28.6886C8.58313 28.6886 7.45306 27.1709 7.61312 25.742H15.3597C16.023 25.742 16.4589 25.3563 16.4724 24.745C16.4859 24.1337 16.0153 23.7055 15.3346 23.7055C12.9433 23.7055 10.5527 23.7055 8.16273 23.7055H7.5842V23.2003C7.5842 19.9779 7.59769 16.7535 7.5842 13.5311C7.58034 12.1368 8.89939 10.8158 10.2821 10.8216L10.2859 10.8178Z" fill="black"/>
<path d="M22.2888 37.4029C22.0227 37.4243 21.7739 37.5432 21.5902 37.7368C21.4066 37.9305 21.3009 38.1852 21.2937 38.452C21.3038 38.7201 21.4184 38.9735 21.613 39.1581C21.8077 39.3426 22.0669 39.4436 22.3351 39.4394C22.4681 39.4416 22.6003 39.4166 22.7234 39.366C22.8465 39.3155 22.958 39.2403 23.0512 39.1452C23.1443 39.0501 23.217 38.937 23.265 38.8129C23.313 38.6887 23.3351 38.5561 23.3301 38.4231C23.3337 38.2863 23.3091 38.1503 23.2578 38.0235C23.2064 37.8967 23.1295 37.7818 23.0318 37.6861C22.934 37.5904 22.8176 37.5158 22.6898 37.4671C22.5619 37.4184 22.4254 37.3965 22.2888 37.4029Z" fill="black"/>
<path d="M19.0487 25.7398C19.1844 25.7453 19.3199 25.7231 19.4468 25.6745C19.5738 25.626 19.6895 25.5521 19.7869 25.4574C19.8843 25.3626 19.9615 25.249 20.0136 25.1235C20.0657 24.998 20.0917 24.8632 20.09 24.7273C20.0895 24.5909 20.0619 24.4559 20.0087 24.3302C19.9555 24.2046 19.8778 24.0908 19.7801 23.9954C19.6825 23.9001 19.5668 23.8252 19.4399 23.7751C19.313 23.7249 19.1774 23.7005 19.0409 23.7033C18.9083 23.7017 18.7768 23.727 18.6543 23.7779C18.5319 23.8287 18.421 23.904 18.3286 23.9991C18.2362 24.0942 18.1642 24.2072 18.1169 24.331C18.0696 24.4549 18.0481 24.5871 18.0536 24.7196C18.0478 25.356 18.4161 25.734 19.0487 25.7398Z" fill="black"/>
</svg>
