<svg width="47" height="62" viewBox="0 0 47 62" fill="none" xmlns="http://www.w3.org/2000/svg">
<path d="M44.4893 38.9738C43.9421 38.4788 43.2363 38.1578 42.5556 37.7208C42.6099 37.579 42.6746 37.4413 42.749 37.3089C43.3122 36.3858 43.5563 35.3032 43.4438 34.2277C43.3313 33.1523 42.8684 32.1436 42.1263 31.3571C41.4303 30.6241 40.5173 30.134 39.5217 29.9591C39.2316 29.9088 38.9938 29.843 39.0537 29.4312C39.3187 27.629 38.7792 26.0917 37.3753 24.9238C36.8648 24.4984 36.2383 24.2103 35.606 23.8235C35.7317 23.6747 35.8729 23.4832 36.0392 23.3169C38.8894 20.4654 41.739 17.6139 44.5879 14.7624C45.8641 13.4765 46.3591 11.9412 45.9415 10.1429C45.5335 8.38324 44.4564 7.18823 42.7741 6.63327C40.8927 6.01257 39.1678 6.40897 37.7466 7.82054C36.1281 9.41388 34.5309 11.0285 32.924 12.6334L21.4361 24.1097C19.1312 26.4147 16.8269 28.7202 14.5233 31.0264C13.7885 31.7574 12.783 31.5659 12.3963 30.5972C12.0695 29.7831 11.8162 28.9361 11.5377 28.1047C10.859 26.0859 10.2306 24.044 9.4919 22.0542C8.23115 18.6413 4.08731 17.5855 1.29317 19.9156C0.183248 20.8418 -0.0468579 22.0678 0.00728466 23.4252C0.17358 27.5207 0.305069 31.6162 0.477165 35.7117C0.577715 38.1346 0.624123 40.5671 0.885168 42.9765C1.23323 46.2057 2.64093 49.0153 4.86271 51.3686C6.79638 53.4118 8.77967 55.4041 10.8126 57.3455C15.26 61.5667 20.4693 62.9319 26.4134 61.3792C28.9975 60.7019 31.3523 59.3428 33.2315 57.4441C37.0021 53.7057 40.7631 49.9518 44.5144 46.1825C46.6395 44.0265 46.6356 40.9152 44.4893 38.9738ZM42.8863 44.4248C41.1808 46.1303 39.4753 47.8345 37.7698 49.5374C35.6273 51.676 33.5041 53.8359 31.3268 55.9417C29.5381 57.6959 27.2627 58.8709 24.7969 59.314C23.9035 59.4784 22.9966 59.5615 22.0897 59.6833C18.1895 59.5731 14.9062 58.1364 12.1894 55.3655C10.333 53.4666 8.40519 51.6374 6.58174 49.7153C4.96272 47.9957 3.84993 45.8625 3.36606 43.5508C2.95612 41.7215 3.0064 39.8652 2.93292 38.0147C2.77629 34.012 2.6274 30.0093 2.4611 26.0066C2.4205 25.0534 2.24067 24.0981 2.26774 23.1506C2.31608 21.7777 3.5981 20.8457 4.96133 21.0681C6.23755 21.275 7.01295 22.0078 7.40355 23.2338C8.03779 25.2177 8.71457 27.1881 9.38168 29.1605C9.6872 30.0654 9.93278 31.0032 10.3485 31.856C10.5984 32.3548 10.9612 32.7885 11.4081 33.1224C11.8551 33.4564 12.3738 33.6814 12.923 33.7796C13.4722 33.8778 14.0367 33.8465 14.5717 33.6881C15.1066 33.5297 15.5973 33.2486 16.0045 32.8673C17.7293 31.2314 19.3807 29.5201 21.0629 27.8398C27.1346 21.7693 33.2031 15.6957 39.2684 9.61885C40.6974 8.18214 42.749 8.65202 43.4799 10.2164C43.6742 10.6634 43.7344 11.1574 43.653 11.638C43.5716 12.1187 43.3523 12.5653 43.0216 12.9235C41.4322 14.5478 39.8175 16.1488 38.2107 17.7576C35.528 20.4454 32.8441 23.1377 30.1589 25.8346C29.9381 26.0464 29.7659 26.3037 29.6542 26.5887C29.5836 26.8291 29.5928 27.0858 29.6803 27.3206C29.7677 27.5554 29.9289 27.7555 30.1395 27.8911C30.3502 28.0267 30.5991 28.0904 30.849 28.0728C31.0989 28.0552 31.3364 27.9572 31.526 27.7934C31.8876 27.482 32.2047 27.1204 32.5644 26.8033C32.8519 26.5369 33.1984 26.3422 33.5755 26.235C33.9526 26.1279 34.3496 26.1113 34.7343 26.1867C35.119 26.2621 35.4805 26.4273 35.7892 26.6689C36.0979 26.9104 36.3453 27.2215 36.511 27.5768C36.723 28.0444 36.7887 28.5652 36.6993 29.0708C36.6099 29.5763 36.3697 30.0431 36.0102 30.4096C35.753 30.6764 35.4861 30.9356 35.227 31.2005C34.7011 31.7361 34.6469 32.3897 35.0936 32.904C35.1996 33.022 35.328 33.1177 35.4713 33.1856C35.6147 33.2534 35.7701 33.2919 35.9286 33.2989C36.087 33.3059 36.2453 33.2813 36.3941 33.2264C36.5429 33.1716 36.6793 33.0876 36.7952 32.9794C37.3637 32.496 37.9786 32.206 38.7289 32.2504C39.2052 32.2753 39.6643 32.4369 40.0513 32.7158C40.4382 32.9947 40.7367 33.3791 40.9108 33.8232C41.085 34.2672 41.1276 34.7521 41.0335 35.2197C40.9394 35.6873 40.7126 36.1179 40.3802 36.46C39.5101 37.3592 38.6032 38.2235 37.7485 39.1362C37.6102 39.2728 37.5084 39.442 37.4525 39.6282C37.3966 39.8144 37.3884 40.0117 37.4287 40.2019C37.4689 40.3921 37.5563 40.5691 37.6828 40.7167C37.8093 40.8643 37.9709 40.9778 38.1527 41.0467C38.6535 41.2575 39.077 41.095 39.4714 40.7508C40.0941 40.2055 40.8134 39.9329 41.6526 40.105C42.091 40.1747 42.5013 40.3653 42.8374 40.6553C43.1735 40.9453 43.4221 41.3232 43.5553 41.7467C43.9014 42.7638 43.6365 43.6687 42.8863 44.4248Z" fill="black"/>
<path d="M7.34746 12.2585C8.98914 13.7532 10.6231 15.2576 12.2841 16.731C12.5672 16.9876 12.9137 17.1638 13.2877 17.2415C13.6255 17.3004 13.9733 17.2453 14.2764 17.085C14.5795 16.9247 14.8207 16.6682 14.9622 16.3559C15.1076 16.0201 15.1413 15.6465 15.0585 15.29C14.9756 14.9336 14.7806 14.6132 14.502 14.3758C12.4021 12.4673 10.3002 10.5607 8.177 8.67733C7.89662 8.42789 7.49249 8.31767 7.30686 8.22485C6.40964 8.25966 5.90688 8.59612 5.64197 9.20715C5.50558 9.48879 5.46004 9.80584 5.51165 10.1145C5.56327 10.4231 5.70948 10.7081 5.93009 10.93C6.37483 11.398 6.86791 11.8215 7.34746 12.2585Z" fill="black"/>
<path d="M16.3991 9.45254C16.4947 9.82965 16.7289 10.1569 17.055 10.3691C17.3811 10.5812 17.7752 10.6627 18.1587 10.5973C19.0095 10.4561 19.5335 9.8238 19.5123 8.79509C19.4678 8.60172 19.3982 8.2672 19.3189 7.93848C19.1971 7.46086 19.0675 6.98518 18.9322 6.50757C18.4758 4.82528 18.0291 3.14106 17.5554 1.46457C17.4296 1.07816 17.161 0.754336 16.8045 0.559208C16.448 0.364079 16.0305 0.312355 15.6372 0.414592C14.7961 0.664035 14.2604 1.47231 14.4654 2.25544C15.1074 4.65705 15.7687 7.05093 16.3991 9.45254Z" fill="black"/>
<path d="M24.6461 13.2948C24.853 13.3899 25.0772 13.4414 25.3049 13.4462C25.5325 13.451 25.7587 13.4089 25.9694 13.3226C26.1802 13.2363 26.3709 13.1076 26.5298 12.9444C26.6886 12.7813 26.8123 12.5873 26.893 12.3743C27.504 10.9434 28.2079 9.55312 28.8576 8.13768C29.0916 7.62525 29.2791 7.09156 29.4686 6.61395C29.4258 6.35878 29.3611 6.10777 29.2752 5.86369C29.1452 5.58122 28.9329 5.34452 28.6663 5.18447C28.3997 5.02442 28.091 4.94845 27.7805 4.96647C27.0651 4.96647 26.5797 5.3358 26.2897 5.95457C25.4853 7.65104 24.6931 9.35653 23.9132 11.071C23.5265 11.9663 23.8649 12.9428 24.6461 13.2948Z" fill="black"/>
</svg>
