<svg width="53" height="52" viewBox="0 0 53 52" fill="none" xmlns="http://www.w3.org/2000/svg">
<path d="M51.0068 43.7384C50.6914 43.3207 50.3438 42.9284 49.967 42.5651C49.4309 42.0068 48.8827 41.4607 48.3305 40.9165C47.7783 40.3723 47.1694 39.8019 46.6009 39.2335C46.0325 38.6651 45.4843 38.0723 44.9159 37.5039C44.3475 36.9355 43.773 36.4156 43.2167 35.8573C42.5046 35.1392 41.8189 34.3968 41.1089 33.6807C40.241 32.8068 39.3571 31.9471 38.4892 31.0894C41.0641 26.6972 41.9228 21.5076 40.8998 16.5201C39.8768 11.5326 37.0446 7.09999 32.9486 4.07602C28.5873 0.83943 23.6292 -0.481504 18.2525 0.155699C12.8757 0.792903 8.37682 3.26283 4.84489 7.40971C-0.9486 14.2187 -2.43743 25.7409 5.36477 34.5161C8.53205 38.0454 12.8224 40.3707 17.5084 41.0977C22.1944 41.8248 26.9877 40.9088 31.0754 38.5052C35.0059 42.4357 38.9161 46.3277 42.8081 50.2379C43.9834 51.4253 45.3245 52.0585 47.0278 51.9957C47.8058 51.9813 48.5693 51.7822 49.2554 51.4151C49.9415 51.048 50.5307 50.5232 50.9744 49.8839C52.3459 47.9743 52.3843 45.7147 51.0068 43.7384ZM20.16 38.8491C10.6849 38.6165 2.24551 30.9053 2.49028 20.1275C2.70875 10.6362 10.4745 2.21093 21.2504 2.49009C30.8044 2.73688 38.7644 10.4642 38.8756 20.6959C38.8048 30.6424 30.7578 39.1081 20.16 38.8491ZM47.7499 49.3761C47.2575 49.5559 46.7249 49.5955 46.2113 49.4905C45.6977 49.3855 45.2234 49.14 44.841 48.7814C41.1048 45.0088 37.3403 41.2644 33.5899 37.5161C33.4766 37.4008 33.3491 37.2996 33.2541 37.2147L37.2027 33.2842C37.2492 33.3287 37.3686 33.4299 37.4798 33.5391L48.6056 44.6649C49.2125 45.2717 49.5988 45.9878 49.5503 46.8354C49.5384 47.3903 49.3606 47.929 49.0397 48.3818C48.7188 48.8347 48.2695 49.181 47.7499 49.3761Z" fill="black"/>
<path d="M29.5766 21.8551C28.4761 20.0318 27.373 18.2079 26.2671 16.3832C25.1627 14.5626 24.1108 12.7077 22.9415 10.9215C21.8876 9.32139 19.4683 9.39219 18.3941 10.9033C17.9714 11.498 17.6194 12.1433 17.2411 12.7684C16.1541 14.562 15.0692 16.3569 13.9863 18.1532C12.7524 20.1984 11.5589 22.2597 10.2824 24.2805C9.08288 26.1941 9.99721 28.3262 11.8158 28.7976C12.6411 29.012 13.5413 28.9493 14.405 29.012V28.9533C15.0342 28.9533 15.6653 28.9655 16.2964 28.9533C17.0631 28.9331 17.5971 28.4254 17.6072 27.7598C17.6072 27.2703 17.0004 26.5461 16.2742 26.6048C15.1151 26.6857 13.9479 26.6331 12.7827 26.625C12.1597 26.625 11.9108 26.2204 12.2102 25.6722C12.54 25.0654 12.9061 24.4949 13.2581 23.9103L17.7084 16.4925C18.5175 15.1533 19.3226 13.8149 20.1237 12.4771C20.1721 12.3795 20.2459 12.2968 20.3373 12.2375C20.4286 12.1783 20.5343 12.1447 20.6431 12.1404C20.7519 12.1361 20.8599 12.1611 20.9557 12.2128C21.0516 12.2646 21.1317 12.3412 21.1877 12.4346C21.6995 13.2761 22.1992 14.1277 22.6988 14.9733C23.9125 16.9962 25.1262 19.019 26.34 21.0419C27.2482 22.559 28.1707 24.0762 29.0627 25.5954C29.443 26.2447 29.1983 26.6291 28.4559 26.6291C27.2584 26.6291 26.0608 26.6291 24.8633 26.6291C24.3373 26.6291 24.0197 26.9406 23.8336 27.3553C23.4817 28.1422 24.0885 28.9493 25.0231 28.9594C26.1721 28.9736 27.3211 28.9756 28.462 28.9594C28.8295 28.9543 29.195 28.9041 29.5503 28.8097C29.9807 28.6827 30.3754 28.4567 30.7029 28.1498C31.0303 27.843 31.2815 27.4637 31.4362 27.0425C31.5909 26.6212 31.6449 26.1696 31.5938 25.7237C31.5428 25.2778 31.3882 24.8501 31.1423 24.4747C30.6062 23.6109 30.1025 22.7269 29.5766 21.8551Z" fill="black"/>
<path d="M21.8814 16.8303C21.8814 16.1243 21.3433 15.5519 20.7182 15.5458C20.5539 15.5434 20.3908 15.5737 20.2384 15.6349C20.086 15.6962 19.9472 15.7872 19.8303 15.9026C19.7134 16.018 19.6206 16.1555 19.5574 16.3072C19.4941 16.4588 19.4617 16.6215 19.462 16.7858C19.4485 19.2604 19.4485 21.7351 19.462 24.2097C19.4565 24.428 19.5099 24.6438 19.6167 24.8343C19.7235 25.0247 19.8797 25.1829 20.0689 25.292C20.9205 25.7916 21.8773 25.1989 21.8895 24.1592C21.9016 22.9293 21.8895 21.6994 21.8895 20.4694C21.8895 19.2395 21.8915 18.044 21.8814 16.8303Z" fill="black"/>
<path d="M20.6941 27.1226C20.3823 27.1255 20.0827 27.2447 19.8541 27.4568C19.6255 27.669 19.4843 27.9588 19.4582 28.2695C19.4399 28.838 20.065 29.4509 20.6719 29.4529C21.2787 29.4549 21.8856 28.8238 21.8856 28.2715C21.8608 27.9679 21.7261 27.6836 21.5068 27.4721C21.2875 27.2606 20.9985 27.1363 20.6941 27.1226Z" fill="black"/>
</svg>
