<svg width="50" height="50" viewBox="0 0 50 50" fill="none" xmlns="http://www.w3.org/2000/svg">
<path d="M49.9935 27.1034C49.5847 31.8559 47.827 36.3929 44.9273 40.1805C42.0276 43.9681 38.1064 46.8487 33.6251 48.4835C29.1439 50.1182 24.2889 50.4391 19.6315 49.4084C14.974 48.3776 10.7079 46.0381 7.33487 42.6651C3.96188 39.2921 1.62238 35.026 0.59164 30.3685C-0.439104 25.7111 -0.118222 20.8561 1.51654 16.3749C3.15129 11.8936 6.03192 7.97244 9.8195 5.07272C13.6071 2.17299 18.1441 0.415336 22.8966 0.00653716C23.1493 -0.0143092 23.4036 0.014818 23.6451 0.092256C23.8865 0.169694 24.1103 0.293926 24.3037 0.45786C24.4971 0.621793 24.6564 0.822216 24.7723 1.04769C24.8883 1.27316 24.9587 1.51926 24.9795 1.77194C25.0004 2.02463 24.9712 2.27894 24.8938 2.52037C24.8164 2.76179 24.6921 2.9856 24.5282 3.17902C24.3643 3.37243 24.1638 3.53166 23.9384 3.64762C23.7129 3.76358 23.4668 3.83399 23.2141 3.85483C19.1917 4.20044 15.3516 5.68775 12.1457 8.14175C8.93986 10.5958 6.50159 13.9144 5.1178 17.7071C3.73402 21.4998 3.46229 25.6089 4.33458 29.5508C5.20687 33.4927 7.1869 37.1035 10.0417 39.9583C12.8965 42.8131 16.5073 44.7931 20.4492 45.6654C24.3911 46.5377 28.5002 46.266 32.2929 44.8822C36.0856 43.4984 39.4042 41.0601 41.8582 37.8543C44.3122 34.6484 45.7996 30.8083 46.1452 26.7859C46.1873 26.2756 46.4304 25.8029 46.821 25.4718C47.2116 25.1407 47.7177 24.9784 48.2281 25.0205C48.7384 25.0626 49.2111 25.3057 49.5421 25.6963C49.8732 26.0869 50.0356 26.593 49.9935 27.1034ZM23.0554 11.5514V25.0205C23.0554 25.5308 23.2581 26.0202 23.6189 26.3811C23.9798 26.7419 24.4692 26.9446 24.9795 26.9446H38.4486C38.9589 26.9446 39.4483 26.7419 39.8091 26.3811C40.17 26.0202 40.3727 25.5308 40.3727 25.0205C40.3727 24.5102 40.17 24.0207 39.8091 23.6599C39.4483 23.299 38.9589 23.0963 38.4486 23.0963H26.9037V11.5514C26.9037 11.0411 26.701 10.5517 26.3401 10.1909C25.9793 9.83 25.4898 9.62728 24.9795 9.62728C24.4692 9.62728 23.9798 9.83 23.6189 10.1909C23.2581 10.5517 23.0554 11.0411 23.0554 11.5514ZM32.6761 5.77898C33.247 5.77898 33.805 5.60971 34.2796 5.29257C34.7543 4.97542 35.1242 4.52466 35.3426 3.99727C35.5611 3.46988 35.6183 2.88956 35.5069 2.32969C35.3955 1.76981 35.1206 1.25554 34.717 0.851892C34.3133 0.448247 33.7991 0.173361 33.2392 0.0619953C32.6793 -0.0493702 32.099 0.00778663 31.5716 0.226238C31.0442 0.444689 30.5935 0.814623 30.2763 1.28926C29.9592 1.7639 29.7899 2.32192 29.7899 2.89276C29.7899 3.65823 30.094 4.39236 30.6353 4.93363C31.1765 5.4749 31.9106 5.77898 32.6761 5.77898ZM41.3348 11.5514C41.9056 11.5514 42.4637 11.3822 42.9383 11.065C43.4129 10.7479 43.7829 10.2971 44.0013 9.76972C44.2198 9.24233 44.2769 8.662 44.1656 8.10213C44.0542 7.54226 43.7793 7.02798 43.3757 6.62434C42.972 6.22069 42.4577 5.94581 41.8979 5.83444C41.338 5.72308 40.7577 5.78023 40.2303 5.99868C39.7029 6.21713 39.2521 6.58707 38.935 7.06171C38.6178 7.53634 38.4486 8.09437 38.4486 8.66521C38.4486 9.43068 38.7527 10.1648 39.2939 10.7061C39.8352 11.2473 40.5693 11.5514 41.3348 11.5514ZM47.1072 20.2101C47.6781 20.2101 48.2361 20.0408 48.7107 19.7237C49.1854 19.4065 49.5553 18.9558 49.7738 18.4284C49.9922 17.901 50.0494 17.3207 49.938 16.7608C49.8266 16.2009 49.5518 15.6867 49.1481 15.283C48.7445 14.8794 48.2302 14.6045 47.6703 14.4931C47.1104 14.3817 46.5301 14.4389 46.0027 14.6574C45.4753 14.8758 45.0246 15.2457 44.7074 15.7204C44.3903 16.195 44.221 16.753 44.221 17.3239C44.221 18.0893 44.5251 18.8235 45.0664 19.3647C45.6076 19.906 46.3418 20.2101 47.1072 20.2101Z" fill="#3C3C3C"/>
</svg>
