<svg width="46" height="46" viewBox="0 0 46 46" fill="none" xmlns="http://www.w3.org/2000/svg">
<path d="M45.0374 11.7811L34.2179 0.96265C33.9128 0.657457 33.5506 0.41536 33.1519 0.250187C32.7533 0.0850142 32.326 0 31.8944 0C31.4629 0 31.0356 0.0850142 30.637 0.250187C30.2383 0.41536 29.8761 0.657457 29.571 0.96265L0.962564 29.5716C0.657398 29.8767 0.415323 30.2389 0.250165 30.6376C0.0850066 31.0363 0 31.4637 0 31.8952C0 32.3268 0.0850066 32.7541 0.250165 33.1528C0.415323 33.5515 0.657398 33.9138 0.962564 34.2189L11.7821 45.0373C12.0872 45.3425 12.4494 45.5846 12.8481 45.7498C13.2467 45.915 13.674 46 14.1056 46C14.5371 46 14.9644 45.915 15.363 45.7498C15.7617 45.5846 16.1239 45.3425 16.429 45.0373L45.0374 16.4284C45.3426 16.1233 45.5847 15.761 45.7498 15.3624C45.915 14.9637 46 14.5363 46 14.1048C46 13.6732 45.915 13.2459 45.7498 12.8472C45.5847 12.4485 45.3426 12.0862 45.0374 11.7811ZM14.1045 42.7147L3.28705 31.8942L9.85803 25.3226L15.2668 30.7339C15.4194 30.8866 15.6006 31.0076 15.8 31.0902C15.9994 31.1729 16.2132 31.2154 16.429 31.2154C16.6449 31.2154 16.8586 31.1729 17.058 31.0902C17.2574 31.0076 17.4386 30.8866 17.5913 30.7339C17.7439 30.5813 17.865 30.4001 17.9476 30.2006C18.0302 30.0012 18.0727 29.7874 18.0727 29.5716C18.0727 29.3557 18.0302 29.1419 17.9476 28.9425C17.865 28.7431 17.7439 28.5619 17.5913 28.4092L12.1805 23L16.429 18.7511L21.8378 24.1623C22.146 24.4706 22.5641 24.6438 23 24.6438C23.4359 24.6438 23.854 24.4706 24.1622 24.1623C24.4705 23.8541 24.6437 23.436 24.6437 23C24.6437 22.564 24.4705 22.1459 24.1622 21.8377L18.7514 16.4284L23 12.1795L28.4087 17.5908C28.5614 17.7434 28.7426 17.8645 28.942 17.9471C29.1414 18.0297 29.3551 18.0722 29.571 18.0722C29.7868 18.0722 30.0006 18.0297 30.2 17.9471C30.3994 17.8645 30.5806 17.7434 30.7332 17.5908C30.8859 17.4381 31.0069 17.2569 31.0895 17.0575C31.1721 16.858 31.2146 16.6443 31.2146 16.4284C31.2146 16.2126 31.1721 15.9988 31.0895 15.7994C31.0069 15.5999 30.8859 15.4187 30.7332 15.2661L25.3224 9.85686L31.8934 3.28529L42.7129 14.1058L14.1045 42.7147Z" fill="#3C3C3C"/>
</svg>
