<svg width="42" height="46" viewBox="0 0 42 46" fill="none" xmlns="http://www.w3.org/2000/svg">
<path d="M40.32 10.2974L22.5508 0.406847C22.076 0.139982 21.5424 0 21 0C20.4576 0 19.924 0.139982 19.4492 0.406847L1.68 10.3015C1.17254 10.5839 0.748939 10.9998 0.453422 11.5057C0.157904 12.0115 0.00131302 12.5888 0 13.1772V32.8228C0.00131302 33.4112 0.157904 33.9885 0.453422 34.4943C0.748939 35.0002 1.17254 35.4161 1.68 35.6985L19.4492 45.5932C19.924 45.86 20.4576 46 21 46C21.5424 46 22.076 45.86 22.5508 45.5932L40.32 35.6985C40.8275 35.4161 41.2511 35.0002 41.5466 34.4943C41.8421 33.9885 41.9987 33.4112 42 32.8228V13.1793C41.9998 12.5898 41.8437 12.0112 41.5481 11.5042C41.2525 10.9972 40.8284 10.5803 40.32 10.2974ZM21 3.2826L37.2225 12.3207L21 21.3588L4.7775 12.3207L21 3.2826ZM3.23077 15.1964L19.3846 24.1893V41.8115L3.23077 32.8248V15.1964ZM22.6154 41.8115V24.1975L38.7692 15.1964V32.8166L22.6154 41.8115Z" fill="#3C3C3C"/>
</svg>
