<svg width="50" height="30" viewBox="0 0 50 30" fill="none" xmlns="http://www.w3.org/2000/svg">
<path d="M49.1188 3.54167C48.853 3.39921 48.5535 3.33153 48.2523 3.34584C47.9511 3.36015 47.6594 3.45591 47.4083 3.62292L40 8.55208V3.33333C40 2.44928 39.6488 1.60143 39.0237 0.976311C38.3986 0.351189 37.5507 0 36.6667 0H3.33333C2.44928 0 1.60143 0.351189 0.976311 0.976311C0.351189 1.60143 0 2.44928 0 3.33333V26.6667C0 27.5507 0.351189 28.3986 0.976311 29.0237C1.60143 29.6488 2.44928 30 3.33333 30H36.6667C37.5507 30 38.3986 29.6488 39.0237 29.0237C39.6488 28.3986 40 27.5507 40 26.6667V21.4583L47.4083 26.3979C47.6835 26.5766 48.0053 26.6701 48.3333 26.6667C48.7754 26.6667 49.1993 26.4911 49.5118 26.1785C49.8244 25.866 50 25.442 50 25V5C49.9979 4.70012 49.9149 4.40637 49.7598 4.1497C49.6047 3.89304 49.3833 3.68298 49.1188 3.54167ZM36.6667 26.6667H3.33333V3.33333H36.6667V26.6667ZM46.6667 21.8854L40 17.4417V12.5583L46.6667 8.125V21.8854Z" fill="#3C3C3C"/>
</svg>
